<svg width="2934" height="1962" xmlns="http://www.w3.org/2000/svg" xmlns:xlink="http://www.w3.org/1999/xlink" xml:space="preserve" overflow="hidden"><g transform="translate(-733 -257)"><path d="M1905.5 555.5C1905.5 392.576 2037.58 260.5 2200.5 260.5 2363.42 260.5 2495.5 392.576 2495.5 555.5 2495.5 718.424 2363.42 850.5 2200.5 850.5 2037.58 850.5 1905.5 718.424 1905.5 555.5Z" stroke="#FFFFFF" stroke-width="6.875" stroke-miterlimit="8" fill="#156082" fill-rule="evenodd"/><text fill="#FFFFFF" font-family="Aptos,Aptos_MSFontService,sans-serif" font-weight="400" font-size="69" transform="matrix(1 0 0 1 2020.16 461)">Filer i </text><text fill="#FFFFFF" font-family="Aptos,Aptos_MSFontService,sans-serif" font-weight="400" font-size="69" transform="matrix(1 0 0 1 2193.02 461)">github</text><text fill="#FFFFFF" font-family="Aptos,Aptos_MSFontService,sans-serif" font-weight="400" font-size="69" transform="matrix(1 0 0 1 2080.73 536)">på </text><text fill="#FFFFFF" font-family="Aptos,Aptos_MSFontService,sans-serif" font-weight="400" font-size="69" transform="matrix(1 0 0 1 2169.78 536)">main</text><text fill="#FFFFFF" font-family="Aptos,Aptos_MSFontService,sans-serif" font-weight="400" font-size="69" transform="matrix(1 0 0 1 2096.04 612)">branch</text><text fill="#FFFFFF" font-family="Aptos,Aptos_MSFontService,sans-serif" font-weight="400" font-size="69" transform="matrix(1 0 0 1 2030.5 687)">uppdateras</text><path d="M2526.68 718.459 2590.34 764.716 2613.76 732.491 2618.89 859.309 2496.69 893.615 2520.11 861.39 2456.44 815.133Z" fill="#AAB6C1" fill-rule="evenodd"/><path d="M2623.5 1076.5C2623.5 913.576 2755.58 781.5 2918.5 781.5 3081.42 781.5 3213.5 913.576 3213.5 1076.5 3213.5 1239.42 3081.42 1371.5 2918.5 1371.5 2755.58 1371.5 2623.5 1239.42 2623.5 1076.5Z" stroke="#FFFFFF" stroke-width="6.875" stroke-miterlimit="8" fill="#156082" fill-rule="evenodd"/><text fill="#FFFFFF" font-family="Aptos,Aptos_MSFontService,sans-serif" font-weight="400" font-size="69" transform="matrix(1 0 0 1 2821.12 1020)">Netifly</text><text fill="#FFFFFF" font-family="Aptos,Aptos_MSFontService,sans-serif" font-weight="400" font-size="69" transform="matrix(1 0 0 1 2776.96 1095)">deketerar</text><text fill="#FFFFFF" font-family="Aptos,Aptos_MSFontService,sans-serif" font-weight="400" font-size="69" transform="matrix(1 0 0 1 2766.51 1171)">förändring</text><path d="M2863.12 1437.59 2838.8 1512.43 2876.68 1524.74 2757.65 1568.81 2687.27 1463.2 2725.15 1475.5 2749.47 1400.66Z" fill="#AAB6C1" fill-rule="evenodd"/><path d="M2348.5 1920.5C2348.5 1757.58 2480.8 1625.5 2644 1625.5 2807.2 1625.5 2939.5 1757.58 2939.5 1920.5 2939.5 2083.42 2807.2 2215.5 2644 2215.5 2480.8 2215.5 2348.5 2083.42 2348.5 1920.5Z" stroke="#FFFFFF" stroke-width="6.875" stroke-miterlimit="8" fill="#156082" fill-rule="evenodd"/><text fill="#FFFFFF" font-family="Aptos,Aptos_MSFontService,sans-serif" font-weight="400" font-size="69" transform="matrix(1 0 0 1 2449.42 1788)">Kopierar över </text><text fill="#FFFFFF" font-family="Aptos,Aptos_MSFontService,sans-serif" font-weight="400" font-size="69" transform="matrix(1 0 0 1 2470.14 1863)">filer och kör </text><text fill="#FFFFFF" font-family="Aptos,Aptos_MSFontService,sans-serif" font-weight="400" font-size="69" transform="matrix(1 0 0 1 2474.58 1939)">kommando </text><text fill="#FFFFFF" font-family="Aptos,Aptos_MSFontService,sans-serif" font-weight="400" font-size="69" transform="matrix(1 0 0 1 2519.36 2014)">npm</text><text fill="#FFFFFF" font-family="Aptos,Aptos_MSFontService,sans-serif" font-weight="400" font-size="69" transform="matrix(1 0 0 1 2668.44 2014)">run</text><text fill="#FFFFFF" font-family="Aptos,Aptos_MSFontService,sans-serif" font-weight="400" font-size="69" transform="matrix(1 0 0 1 2568.63 2090)">build</text><path d="M2283 1980 2204.5 1980 2204.5 2020 2126 1920 2204.5 1820 2204.5 1860 2283 1860Z" fill="#AAB6C1" fill-rule="evenodd"/><path d="M1461.5 1920.5C1461.5 1757.58 1593.8 1625.5 1757 1625.5 1920.2 1625.5 2052.5 1757.58 2052.5 1920.5 2052.5 2083.42 1920.2 2215.5 1757 2215.5 1593.8 2215.5 1461.5 2083.42 1461.5 1920.5Z" stroke="#FFFFFF" stroke-width="6.875" stroke-miterlimit="8" fill="#156082" fill-rule="evenodd"/><text fill="#FFFFFF" font-family="Aptos,Aptos_MSFontService,sans-serif" font-weight="400" font-size="69" transform="matrix(1 0 0 1 1560.95 1901)">publicerar till </text><text fill="#FFFFFF" font-family="Aptos,Aptos_MSFontService,sans-serif" font-weight="400" font-size="69" transform="matrix(1 0 0 1 1629.1 1976)">webhost</text><path d="M1588.27 1595.75 1563.96 1520.9 1526.07 1533.21 1596.46 1427.6 1715.49 1471.67 1677.6 1483.98 1701.92 1558.82Z" fill="#AAB6C1" fill-rule="evenodd"/><path d="M1187.5 1076.5C1187.5 913.576 1319.58 781.5 1482.5 781.5 1645.42 781.5 1777.5 913.576 1777.5 1076.5 1777.5 1239.42 1645.42 1371.5 1482.5 1371.5 1319.58 1371.5 1187.5 1239.42 1187.5 1076.5Z" stroke="#FFFFFF" stroke-width="6.875" stroke-miterlimit="8" fill="#156082" fill-rule="evenodd"/><text fill="#FFFFFF" font-family="Aptos,Aptos_MSFontService,sans-serif" font-weight="400" font-size="69" transform="matrix(1 0 0 1 1348.15 1020)">Hemsida </text><text fill="#FFFFFF" font-family="Aptos,Aptos_MSFontService,sans-serif" font-weight="400" font-size="69" transform="matrix(1 0 0 1 1295.08 1095)">uppdaterad i </text><text fill="#FFFFFF" font-family="Aptos,Aptos_MSFontService,sans-serif" font-weight="400" font-size="69" transform="matrix(1 0 0 1 1320.86 1171)">produktion</text><path d="M1738.78 816.209 1802.45 769.952 1779.04 737.727 1901.23 772.032 1896.1 898.851 1872.69 866.626 1809.02 912.883Z" fill="#AAB6C1" fill-rule="evenodd"/></g></svg>