<svg width="3453" height="1246" xmlns="http://www.w3.org/2000/svg" xmlns:xlink="http://www.w3.org/1999/xlink" xml:space="preserve" overflow="hidden"><g transform="translate(-596 -336)"><path d="M1198.5 954.062 3997.67 954.063 3997.67 960.938 1198.5 960.937ZM3993.08 943.75 4020.58 957.5 3993.08 971.25Z" fill="#156082"/><rect x="1401.5" y="339.5" width="1366" height="338" stroke="#042433" stroke-width="6.875" stroke-miterlimit="8" fill="#156082"/><text fill="#FFFFFF" font-family="Aptos,Aptos_MSFontService,sans-serif" font-weight="400" font-size="83" transform="matrix(1 0 0 1 1795.59 485)">Devlop</text><text fill="#FFFFFF" font-family="Aptos,Aptos_MSFontService,sans-serif" font-weight="400" font-size="83" transform="matrix(1 0 0 1 2062.47 485)">branch</text><text fill="#FFFFFF" font-family="Aptos,Aptos_MSFontService,sans-serif" font-weight="400" font-size="83" transform="matrix(1 0 0 1 2328.72 485)">1</text><text fill="#FFFFFF" font-family="Aptos,Aptos_MSFontService,sans-serif" font-weight="400" font-size="83" transform="matrix(1 0 0 1 1828.68 584)">Commit</text><text fill="#FFFFFF" font-family="Aptos,Aptos_MSFontService,sans-serif" font-weight="400" font-size="83" transform="matrix(1 0 0 1 2135.19 584)">&amp; </text><text fill="#FFFFFF" font-family="Aptos,Aptos_MSFontService,sans-serif" font-weight="400" font-size="83" transform="matrix(1 0 0 1 2205.08 584)">pull</text><rect x="599.5" y="787.5" width="599" height="339" stroke="#042433" stroke-width="6.875" stroke-miterlimit="8" fill="#156082"/><text fill="#FFFFFF" font-family="Aptos,Aptos_MSFontService,sans-serif" font-weight="400" font-size="83" transform="matrix(1 0 0 1 676.891 934)">Main </text><text fill="#FFFFFF" font-family="Aptos,Aptos_MSFontService,sans-serif" font-weight="400" font-size="83" transform="matrix(1 0 0 1 867.672 934)">Branch</text><text fill="#FFFFFF" font-family="Aptos,Aptos_MSFontService,sans-serif" font-weight="400" font-size="83" transform="matrix(1 0 0 1 816.43 1033)">start</text><rect x="1127.5" y="1214.5" width="599" height="339" stroke="#042433" stroke-width="6.875" stroke-miterlimit="8" fill="#156082"/><text fill="#FFFFFF" font-family="Aptos,Aptos_MSFontService,sans-serif" font-weight="400" font-size="83" transform="matrix(1 0 0 1 1168 1311)">Devlop</text><text fill="#FFFFFF" font-family="Aptos,Aptos_MSFontService,sans-serif" font-weight="400" font-size="83" transform="matrix(1 0 0 1 1434.89 1311)">branch</text><text fill="#FFFFFF" font-family="Aptos,Aptos_MSFontService,sans-serif" font-weight="400" font-size="83" transform="matrix(1 0 0 1 1404.2 1410)">2</text><text fill="#FFFFFF" font-family="Aptos,Aptos_MSFontService,sans-serif" font-weight="400" font-size="83" transform="matrix(1 0 0 1 1170.75 1509)">Commit</text><text fill="#FFFFFF" font-family="Aptos,Aptos_MSFontService,sans-serif" font-weight="400" font-size="83" transform="matrix(1 0 0 1 1477.26 1509)">&amp; </text><text fill="#FFFFFF" font-family="Aptos,Aptos_MSFontService,sans-serif" font-weight="400" font-size="83" transform="matrix(1 0 0 1 1547.16 1509)">pull</text><rect x="2200.5" y="787.5" width="599" height="339" stroke="#042433" stroke-width="6.875" stroke-miterlimit="8" fill="#156082"/><text fill="#FFFFFF" font-family="Aptos,Aptos_MSFontService,sans-serif" font-weight="400" font-size="83" transform="matrix(1 0 0 1 2277.68 934)">Main </text><text fill="#FFFFFF" font-family="Aptos,Aptos_MSFontService,sans-serif" font-weight="400" font-size="83" transform="matrix(1 0 0 1 2468.46 934)">Branch</text><text fill="#FFFFFF" font-family="Aptos,Aptos_MSFontService,sans-serif" font-weight="400" font-size="83" transform="matrix(1 0 0 1 2453.47 1033)">V1</text><path d="M0-3.4375 261.069-3.4375 261.069 204.922 254.194 204.922 254.194 0 257.632 3.4375 0 3.4375ZM271.382 200.338 257.632 227.838 243.882 200.338Z" fill="#156082" transform="matrix(1.83697e-16 1 1 -1.83697e-16 899.5 1126.5)"/><path d="M896.063 787.842 896.063 505.062 1378.82 505.062 1378.82 511.937 899.5 511.937 902.938 508.5 902.938 787.842ZM1374.24 494.75 1401.74 508.5 1374.24 522.25Z" fill="#156082"/><path d="M0-3.4375 325.755-3.4375 325.755 426.974 322.317 423.536 451.219 423.536 451.219 430.411 318.88 430.411 318.88 0 322.317 3.4375 0 3.4375ZM446.635 413.224 474.135 426.974 446.635 440.724Z" fill="#156082" transform="matrix(1 0 0 -1 1726.5 1384.47)"/><rect x="3299.5" y="787.5" width="599" height="339" stroke="#042433" stroke-width="6.875" stroke-miterlimit="8" fill="#156082"/><text fill="#FFFFFF" font-family="Aptos,Aptos_MSFontService,sans-serif" font-weight="400" font-size="83" transform="matrix(1 0 0 1 3376.23 934)">Main </text><text fill="#FFFFFF" font-family="Aptos,Aptos_MSFontService,sans-serif" font-weight="400" font-size="83" transform="matrix(1 0 0 1 3567.01 934)">Branch</text><text fill="#FFFFFF" font-family="Aptos,Aptos_MSFontService,sans-serif" font-weight="400" font-size="83" transform="matrix(1 0 0 1 3552.03 1033)">V2</text><path d="M2767.5 505.062 3036.53 505.062 3036.53 957.184 3033.09 953.747 3275.77 953.747 3275.77 960.622 3029.65 960.622 3029.65 508.5 3033.09 511.937 2767.5 511.937ZM3271.18 943.434 3298.68 957.184 3271.18 970.934Z" fill="#156082"/><text font-family="Aptos,Aptos_MSFontService,sans-serif" font-weight="400" font-size="83" transform="matrix(1 0 0 1 1758.86 1365)">Merge</text><text font-family="Aptos,Aptos_MSFontService,sans-serif" font-weight="400" font-size="83" transform="matrix(1 0 0 1 2796.34 484)">Merge</text></g></svg>